<mxfile host="app.diagrams.net" modified="2024-05-24T10:52:52.781Z" agent="Mozilla/5.0 (Windows NT 10.0; Win64; x64) AppleWebKit/537.36 (KHTML, like Gecko) Chrome/124.0.0.0 Safari/537.36" etag="uevGlbwviqAMSRUdzTfK" version="24.4.7" type="github">
  <diagram name="Страница — 1" id="p5iJv7ttFUpRdbmxBiqb">
    <mxGraphModel dx="1105" dy="604" grid="1" gridSize="10" guides="1" tooltips="1" connect="1" arrows="1" fold="1" page="1" pageScale="1" pageWidth="827" pageHeight="1169" math="0" shadow="0">
      <root>
        <mxCell id="0" />
        <mxCell id="1" parent="0" />
        <mxCell id="mhpZV3gW4wpjLYbGXOxX-3" value="view_controller" style="rounded=1;whiteSpace=wrap;html=1;align=left;" vertex="1" parent="1">
          <mxGeometry x="40" y="50" width="100" height="30" as="geometry" />
        </mxCell>
        <mxCell id="mhpZV3gW4wpjLYbGXOxX-4" value="main.py" style="whiteSpace=wrap;html=1;aspect=fixed;align=left;" vertex="1" parent="1">
          <mxGeometry x="40" y="80" width="100" height="100" as="geometry" />
        </mxCell>
        <mxCell id="mhpZV3gW4wpjLYbGXOxX-5" value="" style="endArrow=classic;html=1;rounded=0;" edge="1" parent="1">
          <mxGeometry relative="1" as="geometry">
            <mxPoint x="89.5" y="190" as="sourcePoint" />
            <mxPoint x="89.5" y="300" as="targetPoint" />
          </mxGeometry>
        </mxCell>
        <mxCell id="mhpZV3gW4wpjLYbGXOxX-6" value="&amp;lt;&amp;lt;import&amp;gt;&amp;gt;" style="edgeLabel;resizable=0;html=1;;align=center;verticalAlign=middle;" connectable="0" vertex="1" parent="mhpZV3gW4wpjLYbGXOxX-5">
          <mxGeometry relative="1" as="geometry" />
        </mxCell>
        <mxCell id="mhpZV3gW4wpjLYbGXOxX-8" value="standard library" style="rounded=1;whiteSpace=wrap;html=1;align=left;" vertex="1" parent="1">
          <mxGeometry x="40" y="320" width="100" height="30" as="geometry" />
        </mxCell>
        <mxCell id="mhpZV3gW4wpjLYbGXOxX-9" value="re&amp;nbsp;&lt;div&gt;uuid&lt;/div&gt;&lt;div&gt;pip&amp;nbsp;&lt;/div&gt;&lt;div&gt;setuptools&lt;/div&gt;&lt;div&gt;wheel&lt;/div&gt;&lt;div&gt;Brotli&lt;/div&gt;&lt;div&gt;inda&lt;/div&gt;&lt;div&gt;certifi&lt;/div&gt;&lt;div&gt;urrllib3&lt;/div&gt;&lt;div&gt;&lt;br&gt;&lt;/div&gt;" style="whiteSpace=wrap;html=1;aspect=fixed;align=left;" vertex="1" parent="1">
          <mxGeometry x="40" y="350" width="150" height="150" as="geometry" />
        </mxCell>
        <mxCell id="mhpZV3gW4wpjLYbGXOxX-13" value="" style="endArrow=classic;html=1;rounded=0;" edge="1" parent="1">
          <mxGeometry relative="1" as="geometry">
            <mxPoint x="160" y="129.62" as="sourcePoint" />
            <mxPoint x="260" y="129.62" as="targetPoint" />
          </mxGeometry>
        </mxCell>
        <mxCell id="mhpZV3gW4wpjLYbGXOxX-14" value="&amp;lt;&amp;lt;import&amp;gt;&amp;gt;" style="edgeLabel;resizable=0;html=1;;align=center;verticalAlign=middle;" connectable="0" vertex="1" parent="mhpZV3gW4wpjLYbGXOxX-13">
          <mxGeometry relative="1" as="geometry" />
        </mxCell>
        <mxCell id="mhpZV3gW4wpjLYbGXOxX-22" style="edgeStyle=orthogonalEdgeStyle;rounded=0;orthogonalLoop=1;jettySize=auto;html=1;exitX=1;exitY=0.25;exitDx=0;exitDy=0;entryX=-0.035;entryY=0.451;entryDx=0;entryDy=0;entryPerimeter=0;" edge="1" parent="1" source="mhpZV3gW4wpjLYbGXOxX-16" target="mhpZV3gW4wpjLYbGXOxX-21">
          <mxGeometry relative="1" as="geometry">
            <mxPoint x="460" y="70" as="targetPoint" />
          </mxGeometry>
        </mxCell>
        <mxCell id="mhpZV3gW4wpjLYbGXOxX-16" value="&lt;font style=&quot;font-size: 18px;&quot;&gt;model&lt;/font&gt;&lt;div&gt;&lt;font style=&quot;font-size: 12px;&quot;&gt;(custom modules)&lt;/font&gt;&lt;/div&gt;" style="rounded=1;whiteSpace=wrap;html=1;" vertex="1" parent="1">
          <mxGeometry x="270" y="100" width="120" height="60" as="geometry" />
        </mxCell>
        <mxCell id="mhpZV3gW4wpjLYbGXOxX-20" value="APImanager" style="rounded=1;whiteSpace=wrap;html=1;align=left;" vertex="1" parent="1">
          <mxGeometry x="510" y="10" width="100" height="30" as="geometry" />
        </mxCell>
        <mxCell id="mhpZV3gW4wpjLYbGXOxX-21" value="flights_finder.py&lt;div&gt;noinfo_catcher.py&lt;/div&gt;" style="whiteSpace=wrap;html=1;aspect=fixed;align=left;" vertex="1" parent="1">
          <mxGeometry x="510" y="40" width="100" height="100" as="geometry" />
        </mxCell>
        <mxCell id="mhpZV3gW4wpjLYbGXOxX-23" value="external library" style="rounded=1;whiteSpace=wrap;html=1;align=left;" vertex="1" parent="1">
          <mxGeometry x="230" y="320" width="100" height="30" as="geometry" />
        </mxCell>
        <mxCell id="mhpZV3gW4wpjLYbGXOxX-24" value="&lt;div&gt;geopy&lt;/div&gt;&lt;div&gt;geographiclib&lt;/div&gt;&lt;div&gt;requests&lt;/div&gt;&lt;div&gt;screeninfo&lt;/div&gt;" style="whiteSpace=wrap;html=1;aspect=fixed;align=left;" vertex="1" parent="1">
          <mxGeometry x="230" y="350" width="150" height="150" as="geometry" />
        </mxCell>
      </root>
    </mxGraphModel>
  </diagram>
</mxfile>
